<mxfile host="app.diagrams.net" agent="Mozilla/5.0 (Windows NT 10.0; Win64; x64) AppleWebKit/537.36 (KHTML, like Gecko) Chrome/122.0.6261.95 Safari/537.36" version="25.0.3">
  <diagram name="第 1 页" id="LTvxRMnmmGUvgx3zGGr9">
    <mxGraphModel dx="785" dy="518" grid="1" gridSize="10" guides="1" tooltips="1" connect="1" arrows="1" fold="1" page="1" pageScale="1" pageWidth="827" pageHeight="1169" math="0" shadow="0">
      <root>
        <mxCell id="0" />
        <mxCell id="1" parent="0" />
        <mxCell id="Rq45ZEoeaFC1BQesezGq-3" value="" style="edgeStyle=orthogonalEdgeStyle;rounded=0;orthogonalLoop=1;jettySize=auto;html=1;" edge="1" parent="1" source="Rq45ZEoeaFC1BQesezGq-1" target="Rq45ZEoeaFC1BQesezGq-2">
          <mxGeometry relative="1" as="geometry">
            <Array as="points">
              <mxPoint x="560" y="240" />
              <mxPoint x="260" y="240" />
            </Array>
          </mxGeometry>
        </mxCell>
        <mxCell id="Rq45ZEoeaFC1BQesezGq-6" style="edgeStyle=orthogonalEdgeStyle;rounded=0;orthogonalLoop=1;jettySize=auto;html=1;" edge="1" parent="1" source="Rq45ZEoeaFC1BQesezGq-1" target="Rq45ZEoeaFC1BQesezGq-7">
          <mxGeometry relative="1" as="geometry">
            <mxPoint x="480" y="260" as="targetPoint" />
            <Array as="points">
              <mxPoint x="560" y="210" />
              <mxPoint x="560" y="210" />
            </Array>
          </mxGeometry>
        </mxCell>
        <mxCell id="Rq45ZEoeaFC1BQesezGq-10" style="edgeStyle=orthogonalEdgeStyle;rounded=0;orthogonalLoop=1;jettySize=auto;html=1;entryX=0.5;entryY=0;entryDx=0;entryDy=0;" edge="1" parent="1" source="Rq45ZEoeaFC1BQesezGq-1" target="Rq45ZEoeaFC1BQesezGq-8">
          <mxGeometry relative="1" as="geometry">
            <Array as="points">
              <mxPoint x="560" y="240" />
              <mxPoint x="790" y="240" />
            </Array>
          </mxGeometry>
        </mxCell>
        <mxCell id="Rq45ZEoeaFC1BQesezGq-11" value="登录" style="edgeLabel;html=1;align=center;verticalAlign=middle;resizable=0;points=[];" vertex="1" connectable="0" parent="Rq45ZEoeaFC1BQesezGq-10">
          <mxGeometry x="-0.8322" y="-5" relative="1" as="geometry">
            <mxPoint as="offset" />
          </mxGeometry>
        </mxCell>
        <mxCell id="Rq45ZEoeaFC1BQesezGq-1" value="游客" style="rounded=0;whiteSpace=wrap;html=1;" vertex="1" parent="1">
          <mxGeometry x="500" y="120" width="120" height="60" as="geometry" />
        </mxCell>
        <mxCell id="Rq45ZEoeaFC1BQesezGq-14" value="" style="edgeStyle=orthogonalEdgeStyle;rounded=0;orthogonalLoop=1;jettySize=auto;html=1;" edge="1" parent="1" source="Rq45ZEoeaFC1BQesezGq-2" target="Rq45ZEoeaFC1BQesezGq-13">
          <mxGeometry relative="1" as="geometry" />
        </mxCell>
        <mxCell id="Rq45ZEoeaFC1BQesezGq-15" style="edgeStyle=orthogonalEdgeStyle;rounded=0;orthogonalLoop=1;jettySize=auto;html=1;" edge="1" parent="1" source="Rq45ZEoeaFC1BQesezGq-2" target="Rq45ZEoeaFC1BQesezGq-16">
          <mxGeometry relative="1" as="geometry">
            <mxPoint x="320" y="360" as="targetPoint" />
          </mxGeometry>
        </mxCell>
        <mxCell id="Rq45ZEoeaFC1BQesezGq-2" value="顾客" style="rounded=0;whiteSpace=wrap;html=1;" vertex="1" parent="1">
          <mxGeometry x="200" y="260" width="120" height="60" as="geometry" />
        </mxCell>
        <mxCell id="Rq45ZEoeaFC1BQesezGq-20" value="" style="edgeStyle=orthogonalEdgeStyle;rounded=0;orthogonalLoop=1;jettySize=auto;html=1;" edge="1" parent="1" source="Rq45ZEoeaFC1BQesezGq-7" target="Rq45ZEoeaFC1BQesezGq-19">
          <mxGeometry relative="1" as="geometry">
            <Array as="points">
              <mxPoint x="560" y="350" />
              <mxPoint x="440" y="350" />
            </Array>
          </mxGeometry>
        </mxCell>
        <mxCell id="Rq45ZEoeaFC1BQesezGq-22" style="edgeStyle=orthogonalEdgeStyle;rounded=0;orthogonalLoop=1;jettySize=auto;html=1;exitX=0.5;exitY=1;exitDx=0;exitDy=0;" edge="1" parent="1" source="Rq45ZEoeaFC1BQesezGq-7" target="Rq45ZEoeaFC1BQesezGq-23">
          <mxGeometry relative="1" as="geometry">
            <mxPoint x="550" y="370" as="targetPoint" />
          </mxGeometry>
        </mxCell>
        <mxCell id="Rq45ZEoeaFC1BQesezGq-25" style="edgeStyle=orthogonalEdgeStyle;rounded=0;orthogonalLoop=1;jettySize=auto;html=1;exitX=0;exitY=0.5;exitDx=0;exitDy=0;entryX=1;entryY=0.5;entryDx=0;entryDy=0;" edge="1" parent="1" source="Rq45ZEoeaFC1BQesezGq-7" target="Rq45ZEoeaFC1BQesezGq-2">
          <mxGeometry relative="1" as="geometry" />
        </mxCell>
        <mxCell id="Rq45ZEoeaFC1BQesezGq-26" value="用户创建" style="edgeLabel;html=1;align=center;verticalAlign=middle;resizable=0;points=[];" vertex="1" connectable="0" parent="Rq45ZEoeaFC1BQesezGq-25">
          <mxGeometry x="-0.0815" y="2" relative="1" as="geometry">
            <mxPoint as="offset" />
          </mxGeometry>
        </mxCell>
        <mxCell id="Rq45ZEoeaFC1BQesezGq-7" value="销售" style="rounded=0;whiteSpace=wrap;html=1;" vertex="1" parent="1">
          <mxGeometry x="500" y="260" width="120" height="60" as="geometry" />
        </mxCell>
        <mxCell id="Rq45ZEoeaFC1BQesezGq-28" value="" style="edgeStyle=orthogonalEdgeStyle;rounded=0;orthogonalLoop=1;jettySize=auto;html=1;" edge="1" parent="1" source="Rq45ZEoeaFC1BQesezGq-8" target="Rq45ZEoeaFC1BQesezGq-27">
          <mxGeometry relative="1" as="geometry" />
        </mxCell>
        <mxCell id="Rq45ZEoeaFC1BQesezGq-39" style="edgeStyle=orthogonalEdgeStyle;rounded=0;orthogonalLoop=1;jettySize=auto;html=1;exitX=0.5;exitY=1;exitDx=0;exitDy=0;" edge="1" parent="1" source="Rq45ZEoeaFC1BQesezGq-8" target="Rq45ZEoeaFC1BQesezGq-40">
          <mxGeometry relative="1" as="geometry">
            <mxPoint x="910" y="370" as="targetPoint" />
          </mxGeometry>
        </mxCell>
        <mxCell id="Rq45ZEoeaFC1BQesezGq-8" value="店长" style="rounded=0;whiteSpace=wrap;html=1;" vertex="1" parent="1">
          <mxGeometry x="730" y="260" width="120" height="60" as="geometry" />
        </mxCell>
        <mxCell id="Rq45ZEoeaFC1BQesezGq-13" value="查询图书" style="rounded=0;whiteSpace=wrap;html=1;" vertex="1" parent="1">
          <mxGeometry x="150" y="370" width="100" height="50" as="geometry" />
        </mxCell>
        <mxCell id="Rq45ZEoeaFC1BQesezGq-16" value="购买图书" style="rounded=0;whiteSpace=wrap;html=1;" vertex="1" parent="1">
          <mxGeometry x="270" y="370" width="100" height="50" as="geometry" />
        </mxCell>
        <mxCell id="Rq45ZEoeaFC1BQesezGq-36" style="edgeStyle=orthogonalEdgeStyle;rounded=0;orthogonalLoop=1;jettySize=auto;html=1;exitX=1;exitY=1;exitDx=0;exitDy=0;" edge="1" parent="1" source="Rq45ZEoeaFC1BQesezGq-19">
          <mxGeometry relative="1" as="geometry">
            <mxPoint x="740" y="420" as="targetPoint" />
            <Array as="points">
              <mxPoint x="490" y="440" />
              <mxPoint x="740" y="440" />
            </Array>
          </mxGeometry>
        </mxCell>
        <mxCell id="Rq45ZEoeaFC1BQesezGq-42" style="edgeStyle=orthogonalEdgeStyle;rounded=0;orthogonalLoop=1;jettySize=auto;html=1;exitX=0;exitY=0.5;exitDx=0;exitDy=0;entryX=1;entryY=0.5;entryDx=0;entryDy=0;" edge="1" parent="1" source="Rq45ZEoeaFC1BQesezGq-19" target="Rq45ZEoeaFC1BQesezGq-16">
          <mxGeometry relative="1" as="geometry" />
        </mxCell>
        <mxCell id="Rq45ZEoeaFC1BQesezGq-19" value="进货" style="rounded=0;whiteSpace=wrap;html=1;" vertex="1" parent="1">
          <mxGeometry x="390" y="370" width="100" height="50" as="geometry" />
        </mxCell>
        <mxCell id="Rq45ZEoeaFC1BQesezGq-24" style="edgeStyle=orthogonalEdgeStyle;rounded=0;orthogonalLoop=1;jettySize=auto;html=1;exitX=0.5;exitY=1;exitDx=0;exitDy=0;entryX=0.5;entryY=1;entryDx=0;entryDy=0;" edge="1" parent="1" source="Rq45ZEoeaFC1BQesezGq-23" target="Rq45ZEoeaFC1BQesezGq-13">
          <mxGeometry relative="1" as="geometry">
            <mxPoint x="320" y="530" as="targetPoint" />
            <Array as="points">
              <mxPoint x="560" y="470" />
              <mxPoint x="200" y="470" />
            </Array>
          </mxGeometry>
        </mxCell>
        <mxCell id="Rq45ZEoeaFC1BQesezGq-37" style="edgeStyle=orthogonalEdgeStyle;rounded=0;orthogonalLoop=1;jettySize=auto;html=1;exitX=1;exitY=1;exitDx=0;exitDy=0;entryX=0;entryY=1;entryDx=0;entryDy=0;" edge="1" parent="1" source="Rq45ZEoeaFC1BQesezGq-23" target="Rq45ZEoeaFC1BQesezGq-27">
          <mxGeometry relative="1" as="geometry">
            <mxPoint x="680" y="500" as="targetPoint" />
          </mxGeometry>
        </mxCell>
        <mxCell id="Rq45ZEoeaFC1BQesezGq-23" value="图书信息录入/修改" style="rounded=0;whiteSpace=wrap;html=1;" vertex="1" parent="1">
          <mxGeometry x="510" y="370" width="100" height="50" as="geometry" />
        </mxCell>
        <mxCell id="Rq45ZEoeaFC1BQesezGq-43" style="edgeStyle=orthogonalEdgeStyle;rounded=0;orthogonalLoop=1;jettySize=auto;html=1;exitX=1;exitY=0.5;exitDx=0;exitDy=0;entryX=0;entryY=0.5;entryDx=0;entryDy=0;" edge="1" parent="1" source="Rq45ZEoeaFC1BQesezGq-27" target="Rq45ZEoeaFC1BQesezGq-40">
          <mxGeometry relative="1" as="geometry" />
        </mxCell>
        <mxCell id="Rq45ZEoeaFC1BQesezGq-27" value="查询采购/销售记录" style="rounded=0;whiteSpace=wrap;html=1;" vertex="1" parent="1">
          <mxGeometry x="740" y="370" width="100" height="50" as="geometry" />
        </mxCell>
        <mxCell id="Rq45ZEoeaFC1BQesezGq-40" value="盈利情况" style="rounded=0;whiteSpace=wrap;html=1;" vertex="1" parent="1">
          <mxGeometry x="860" y="370" width="100" height="50" as="geometry" />
        </mxCell>
      </root>
    </mxGraphModel>
  </diagram>
</mxfile>
